HIERARCHY
ROOT root
{
	OFFSET 0.000000 0.000000 0.000000
	CHANNELS 6 Xposition Yposition Zposition Zrotation Yrotation Xrotation
	JOINT lhip
	{
		OFFSET 0.058581 -0.082280 -0.017664
		CHANNELS 3 Zrotation Yrotation Xrotation
		JOINT lknee
		{
			OFFSET 0.043451 -0.386469 0.008037
			CHANNELS 3 Zrotation Yrotation Xrotation
			JOINT lankle
			{
				OFFSET -0.014790 -0.426874 -0.037428
				CHANNELS 3 Zrotation Yrotation Xrotation
				JOINT ltoe
				{
					OFFSET 0.041054 -0.060286 0.122042
					CHANNELS 3 Zrotation Yrotation Xrotation
					End Site
					{
						OFFSET 0.000000 0.000000 0.000000
					}
				}
			}
		}
	}
	JOINT rhip
	{
		OFFSET -0.060310 -0.090513 -0.013543
		CHANNELS 3 Zrotation Yrotation Xrotation
		JOINT rknee
		{
			OFFSET -0.043257 -0.383688 -0.004843
			CHANNELS 3 Zrotation Yrotation Xrotation
			JOINT rankle
			{
				OFFSET 0.019056 -0.420046 -0.034562
				CHANNELS 3 Zrotation Yrotation Xrotation
				JOINT rtoe
				{
					OFFSET -0.034840 -0.062106 0.130323
					CHANNELS 3 Zrotation Yrotation Xrotation
					End Site
					{
						OFFSET 0.000000 0.000000 0.000000
					}
				}
			}
		}
	}
	JOINT lowerback
	{
		OFFSET 0.004439 0.124404 -0.038385
		CHANNELS 3 Zrotation Yrotation Xrotation
		JOINT upperback
		{
			OFFSET 0.004488 0.137956 0.026820
			CHANNELS 3 Zrotation Yrotation Xrotation
			JOINT chest
			{
				OFFSET -0.002265 0.056032 0.002855
				CHANNELS 3 Zrotation Yrotation Xrotation
				JOINT lowerneck
				{
					OFFSET -0.013390 0.211636 -0.033468
					CHANNELS 3 Zrotation Yrotation Xrotation
					JOINT upperneck
					{
						OFFSET 0.010113 0.088937 0.050410
						CHANNELS 3 Zrotation Yrotation Xrotation
						End Site
						{
							OFFSET 0.000000 0.000000 0.000000
						}
					}
				}
				JOINT lclavicle
				{
					OFFSET 0.071702 0.114000 -0.018898
					CHANNELS 3 Zrotation Yrotation Xrotation
					JOINT lshoulder
					{
						OFFSET 0.122921 0.045205 -0.019046
						CHANNELS 3 Zrotation Yrotation Xrotation
						JOINT lelbow
						{
							OFFSET 0.255332 -0.015649 -0.022946
							CHANNELS 3 Zrotation Yrotation Xrotation
							JOINT lwrist
							{
								OFFSET 0.265709 0.012698 -0.007375
								CHANNELS 3 Zrotation Yrotation Xrotation
								End Site
								{
									OFFSET 0.000000 0.000000 0.000000
								}
							}
						}
					}
				}
				JOINT rclavicle
				{
					OFFSET -0.082954 0.112472 -0.023707
					CHANNELS 3 Zrotation Yrotation Xrotation
					JOINT rshoulder
					{
						OFFSET -0.113228 0.046853 -0.008472
						CHANNELS 3 Zrotation Yrotation Xrotation
						JOINT relbow
						{
							OFFSET -0.260127 -0.014369 -0.031269
							CHANNELS 3 Zrotation Yrotation Xrotation
							JOINT rwrist
							{
								OFFSET -0.269108 0.006794 -0.006027
								CHANNELS 3 Zrotation Yrotation Xrotation
								End Site
								{
									OFFSET 0.000000 0.000000 0.000000
								}
							}
						}
					}
				}
			}
		}
	}
}
MOTION
Frames: 12
Frame Time: 0.033333
0.079757 -0.281740 0.129756 174.477090 1.279627 -172.351192 7.818999 16.165740 -12.602498 -2.258126 27.103397 4.191208 -1.828942 22.569548 5.007058 0.000000 -0.000000 0.000000 -12.072620 -19.004897 -17.594023 -2.586695 -33.916088 12.336407 1.860781 -17.579945 9.518783 0.000000 -0.000000 0.000000 2.950161 2.153951 -20.088182 -3.146392 -2.938622 14.190362 -2.636128 0.836271 -2.874311 -16.528986 24.835198 1.717978 -7.083434 23.773291 -7.884601 5.844413 -14.347982 -4.398238 9.853027 -2.002470 -32.876473 118.632805 -46.510766 -116.206572 0.199908 -8.227096 -6.631194 -8.367181 11.855023 -3.263851 -8.078021 11.149605 -44.437544 -120.108690 49.239860 -134.902383 1.805166 13.998665 -16.120437 
0.079839 -0.281429 0.130645 174.648394 1.093726 -171.988909 7.897821 15.788842 -13.157917 -2.088194 27.574351 4.338598 -2.037449 22.601383 4.979153 0.000000 -0.000000 0.000000 -11.759820 -18.784330 -18.012364 -2.619354 -33.960309 12.254386 1.759366 -17.999011 9.790237 0.000000 -0.000000 0.000000 3.195494 2.074266 -19.833087 -3.068235 -3.023463 13.379093 -2.807803 0.754916 -2.374852 -15.843865 24.392399 0.169720 -7.553449 23.130563 -7.697321 6.393417 -13.790775 -5.541538 9.147482 -2.605842 -32.283758 118.965654 -46.504625 -116.036052 -0.003278 -8.208231 -6.783352 -8.261457 11.630688 -4.430987 -7.953849 11.577169 -43.647918 -120.277870 49.243589 -134.867758 1.939186 13.869167 -16.364431 
0.079954 -0.281468 0.130897 174.832761 0.996836 -171.802487 8.047046 15.747509 -13.487339 -2.029142 27.856857 4.518661 -2.320353 22.603305 4.803715 0.000000 -0.000000 0.000000 -11.512183 -18.681660 -18.305412 -2.773139 -34.025439 12.467079 1.681085 -18.003053 9.709401 0.000000 -0.000000 0.000000 3.436009 2.063406 -19.883465 -3.041065 -3.094142 13.087600 -2.865628 0.712350 -2.153129 -15.679212 24.483306 0.162101 -7.681422 23.059428 -7.609023 6.498812 -13.584761 -5.735196 8.734037 -2.833852 -32.015218 119.246917 -46.467056 -115.580700 0.454491 -8.767357 -6.307759 -8.394145 11.576569 -4.500332 -7.773358 11.688159 -43.553680 -120.225874 49.175135 -134.633136 1.753630 14.078366 -16.515048 
0.080231 -0.281760 0.131542 175.136846 0.814706 -171.443494 8.301140 15.744054 -14.179707 -1.910256 27.660147 4.881341 -2.700017 22.864080 4.655508 0.000000 -0.000000 0.000000 -11.073907 -18.565013 -18.656504 -2.729352 -34.105512 12.386872 1.442017 -18.232254 9.810500 0.000000 -0.000000 0.000000 3.716654 2.052960 -20.054707 -2.786371 -3.427095 13.056029 -2.818821 0.900170 -2.919516 -16.164341 24.845306 1.570784 -6.073371 23.900570 -6.185079 5.435122 -13.684231 -4.395168 9.569227 -2.806084 -33.091383 119.084618 -46.787857 -116.022869 -0.184769 -8.239274 -6.358075 -8.682375 11.351553 -2.992178 -8.169803 11.755157 -44.843748 -120.081269 49.552841 -134.788373 1.887710 14.030351 -16.630537 
0.080428 -0.281683 0.131766 175.176223 0.808163 -171.381152 8.334094 15.717721 -14.297898 -1.840981 27.654371 4.949431 -2.709153 22.858098 4.696691 0.000000 -0.000000 0.000000 -10.978745 -18.482020 -18.707727 -2.728992 -34.109262 12.267241 1.400716 -18.330896 9.915039 0.000000 -0.000000 0.000000 3.703554 2.072401 -19.928480 -2.729769 -3.482211 12.706884 -2.821686 0.923207 -2.837652 -16.212740 24.716860 1.646921 -6.013288 24.035277 -6.268295 5.474246 -13.623326 -4.418495 9.535440 -2.934106 -33.161746 119.024382 -46.765673 -116.385059 -1.024910 -7.782442 -7.233702 -8.643061 11.368956 -3.007082 -8.151430 11.731875 -44.851931 -120.140804 49.624471 -135.011481 2.159313 13.934586 -16.538339 
0.080659 -0.281556 0.132339 175.327394 0.690989 -171.297617 8.544743 15.669354 -14.563577 -1.743739 27.761692 5.194809 -2.855945 22.769509 4.753681 0.000000 -0.000000 0.000000 -10.719292 -18.419859 -18.855515 -2.893143 -34.249191 12.312433 1.455400 -18.412531 9.856082 0.000000 -0.000000 0.000000 3.708611 2.126503 -19.825888 -2.623453 -3.469795 12.324838 -2.678277 0.823612 -2.577939 -16.139518 24.785915 1.699838 -5.997531 23.872421 -6.162135 5.401260 -13.683608 -4.463618 9.291569 -3.042626 -33.066297 119.413249 -46.986994 -115.801163 0.574998 -8.890479 -5.823529 -8.643496 11.295644 -3.139201 -8.219221 11.731939 -44.843987 -120.172512 49.751279 -134.890997 1.612945 14.205619 -16.801918 
0.080600 -0.281362 0.132998 175.362340 0.583803 -171.143070 8.567804 15.512822 -14.840789 -1.700152 27.918040 5.305580 -2.919048 22.834410 4.719783 0.000000 -0.000000 0.000000 -10.649447 -18.377885 -19.160703 -3.070779 -34.424785 12.576916 1.558835 -18.516101 9.713558 0.000000 -0.000000 0.000000 3.880752 2.128569 -19.802857 -2.658619 -3.608140 11.902187 -2.877379 0.776038 -2.190251 -16.218769 24.733419 1.816553 -6.154877 23.752664 -6.714260 5.698030 -13.257943 -4.715338 8.919016 -3.409687 -33.169715 119.448108 -46.889089 -116.173024 -0.695313 -8.107808 -7.051878 -8.800377 11.130981 -3.439301 -7.748769 12.131766 -44.766059 -120.453118 49.679294 -135.024104 1.968685 14.087917 -16.707777 
0.080543 -0.281424 0.133687 175.487028 0.484440 -171.067399 8.722150 15.372881 -15.117281 -1.578608 28.187828 5.583050 -2.653837 22.724196 4.805999 0.000000 -0.000000 0.000000 -10.516179 -18.304342 -19.374033 -3.220387 -34.726899 12.842521 1.442177 -18.510003 9.601037 0.000000 -0.000000 0.000000 4.204562 2.046129 -19.712915 -2.716655 -3.602909 11.652793 -3.022848 0.776767 -2.201852 -16.161854 24.841764 2.154704 -6.111026 23.622598 -6.835681 5.687596 -13.194237 -4.656763 8.780878 -3.558068 -32.879403 119.560745 -46.993794 -115.393802 0.905056 -9.240209 -6.044913 -9.402886 10.938078 -3.824949 -6.640437 12.556585 -44.513882 -120.907123 49.839510 -134.783330 1.302360 14.493410 -17.223037 
0.080579 -0.282011 0.134398 175.639000 0.382354 -170.903410 8.876056 15.347560 -15.479663 -1.502611 28.378171 5.799516 -2.976938 22.738848 4.655319 0.000000 -0.000000 0.000000 -10.304194 -18.319421 -19.673026 -3.361420 -34.975408 13.038187 1.501381 -18.440692 9.516525 0.000000 -0.000000 0.000000 4.279282 2.156953 -19.872411 -2.596771 -3.635086 11.792969 -3.018483 0.780158 -2.285564 -16.121461 24.706051 2.117738 -6.059767 23.540949 -6.611285 5.428758 -13.251390 -4.941019 9.043180 -3.996512 -32.496038 119.434294 -46.970098 -115.704514 0.859741 -8.957559 -5.442254 -9.040941 11.070177 -3.872985 -7.384932 12.107221 -44.344169 -120.483653 49.803142 -134.756995 1.354422 14.462243 -17.010164 
0.080777 -0.282139 0.134820 175.735637 0.293821 -170.783921 8.983898 15.201426 -15.680703 -1.454818 28.431384 5.858201 -3.072665 22.870273 4.637595 0.000000 -0.000000 0.000000 -10.090112 -18.213142 -19.776784 -3.357537 -34.922100 12.908415 1.388459 -18.682766 9.489094 0.000000 -0.000000 0.000000 4.319542 2.179949 -19.673104 -2.523693 -3.726050 11.111936 -2.943650 0.708003 -1.891254 -16.334125 24.712515 2.214154 -6.089179 23.463002 -7.011943 5.341828 -13.097272 -5.020539 8.999014 -4.063969 -32.444043 119.464009 -46.934729 -115.843077 0.853064 -9.015791 -5.395533 -8.917317 11.051698 -3.722996 -7.741752 12.193447 -44.496273 -120.274301 49.783467 -134.632967 1.501035 14.328902 -17.083904 
0.080851 -0.282072 0.135343 175.800877 0.189154 -170.678337 9.045358 15.068976 -15.905120 -1.387760 28.376890 5.978404 -2.756497 22.943844 4.730318 0.000000 -0.000000 0.000000 -9.981878 -18.192968 -19.916166 -3.402816 -34.920911 12.884039 1.572282 -18.877860 9.563144 0.000000 -0.000000 0.000000 4.379077 2.197960 -19.435759 -2.486925 -3.824800 10.516621 -2.928050 0.658626 -1.615503 -16.423155 24.751628 2.275947 -5.950581 23.538683 -7.064429 5.265784 -13.164921 -5.185428 9.088791 -3.791647 -32.533182 119.485281 -47.147645 -115.407214 0.868867 -9.344484 -5.967339 -8.988522 11.042839 -3.909497 -7.623192 12.210810 -44.438722 -120.380545 49.822700 -134.534108 1.543769 14.387792 -17.301690 
0.081059 -0.282210 0.135661 175.953138 0.073220 -170.625730 9.293976 14.978305 -16.053872 -1.414341 28.376970 6.133348 -2.590975 22.947582 4.780973 0.000000 -0.000000 0.000000 -9.803232 -18.126487 -20.004815 -3.475112 -35.032400 12.971132 1.382556 -19.005579 9.565131 0.000000 -0.000000 0.000000 4.470613 2.276124 -19.322986 -2.372090 -3.898290 10.320836 -2.928232 0.593960 -1.525477 -16.319463 24.761636 2.301629 -5.969982 23.528270 -6.868337 5.244799 -13.148706 -5.261619 9.018162 -3.884708 -32.601036 119.498515 -47.229028 -115.307899 0.758461 -9.510349 -6.003735 -9.102300 10.949766 -4.158855 -7.526560 12.214504 -44.320110 -120.309175 49.892052 -134.492563 1.680053 14.437347 -17.428409 
